<svg width="24" height="22" viewBox="0 0 24 22" fill="none" xmlns="http://www.w3.org/2000/svg">
<path d="M13.5841 20.7381C13.2092 21.0953 12.6157 21.0807 12.2586 20.7059C11.9015 20.331 11.916 19.7375 12.2909 19.3804L20.1052 11.9371H1.6875C1.16975 11.9371 0.75 11.5174 0.75 10.9996C0.75 10.4819 1.16975 10.0621 1.6875 10.0621H20.1053L12.2909 2.61878C11.916 2.26166 11.9016 1.66825 12.2586 1.29334C12.6157 0.918438 13.2092 0.904 13.5841 1.26111L22.8578 10.0945C23.0689 10.2956 23.1939 10.5521 23.2326 10.8189C23.244 10.8774 23.25 10.9379 23.25 10.9996C23.25 11.0616 23.244 11.1221 23.2325 11.1807C23.1937 11.4474 23.0688 11.7037 22.8578 11.9047L13.5841 20.7381Z" fill="#007AFF" stroke="#007AFF"/>
</svg>
