<svg width="105" height="105" viewBox="0 0 105 105" fill="none" xmlns="http://www.w3.org/2000/svg">
<mask id="mask0_14_125" style="mask-type:luminance" maskUnits="userSpaceOnUse" x="0" y="0" width="105" height="105">
<path d="M103.5 103.5V1.5H1.5V103.5H103.5Z" fill="white" stroke="white" stroke-width="3"/>
</mask>
<g mask="url(#mask0_14_125)">
<path d="M75.8988 74.2454L84.2272 70.7785H92.8264L103.462 75.2057V99.8762" stroke="black" stroke-width="3" stroke-miterlimit="10" stroke-linecap="round" stroke-linejoin="round"/>
<path d="M93.5574 65.6659H83.4957C80.5024 65.6659 78.0757 63.2392 78.0757 60.2457V50.7073H98.9777V60.2457C98.9777 63.2392 96.551 65.6659 93.5574 65.6659Z" stroke="black" stroke-width="3" stroke-miterlimit="10" stroke-linecap="round" stroke-linejoin="round"/>
<path d="M101.06 50.7075H75.9935C75.8393 50.7075 75.6865 50.6771 75.544 50.6181C75.4014 50.559 75.2719 50.4725 75.1628 50.3634C75.0538 50.2543 74.9672 50.1248 74.9082 49.9822C74.8492 49.8397 74.8188 49.6869 74.8188 49.5326V46.357C74.8188 46.2027 74.8492 46.0499 74.9082 45.9074C74.9672 45.7649 75.0538 45.6353 75.1628 45.5262C75.2719 45.4171 75.4014 45.3306 75.544 45.2715C75.6865 45.2125 75.8393 45.1821 75.9935 45.1821H101.06C101.371 45.1822 101.67 45.306 101.89 45.5263C102.111 45.7466 102.234 46.0454 102.235 46.357V49.5326C102.234 49.8442 102.111 50.143 101.89 50.3633C101.67 50.5837 101.371 50.7075 101.06 50.7075Z" stroke="black" stroke-width="3" stroke-miterlimit="10" stroke-linecap="round" stroke-linejoin="round"/>
<path d="M91.1203 36.1712H91.1322C96.1086 36.1712 100.143 40.2055 100.143 45.1821H76.9102C76.9102 40.2055 80.9445 36.1712 85.9209 36.1712H85.9328" stroke="black" stroke-width="3" stroke-miterlimit="10" stroke-linecap="round" stroke-linejoin="round"/>
<path d="M90.0939 33.593H86.9597C86.8249 33.593 86.6914 33.6195 86.5668 33.6711C86.4423 33.7227 86.3291 33.7983 86.2338 33.8937C86.0412 34.0862 85.9331 34.3473 85.9331 34.6196V45.1821H91.1205V34.6196C91.1205 34.3473 91.0124 34.0862 90.8198 33.8937C90.6273 33.7011 90.3662 33.593 90.0939 33.593Z" stroke="black" stroke-width="3" stroke-miterlimit="10" stroke-linecap="round" stroke-linejoin="round"/>
<path d="M88.5267 50.7075V54.3516" stroke="black" stroke-width="3" stroke-miterlimit="10" stroke-linecap="round" stroke-linejoin="round"/>
<path d="M86.0932 58.8239C86.5206 59.7389 87.4498 60.373 88.5267 60.373C89.6036 60.373 90.5328 59.7389 90.9601 58.8239" stroke="black" stroke-width="3" stroke-miterlimit="10" stroke-linecap="round" stroke-linejoin="round"/>
<path d="M92.8257 65.6661H84.2276V70.7777H92.8257V65.6661Z" stroke="black" stroke-width="3" stroke-miterlimit="10" stroke-linecap="round" stroke-linejoin="round"/>
<path d="M84.2276 70.7783L88.5267 79.3292L92.8257 70.7783H84.2276Z" stroke="black" stroke-width="3" stroke-miterlimit="10" stroke-linecap="round" stroke-linejoin="round"/>
<path d="M88.5267 79.3292V99.8763" stroke="black" stroke-width="3" stroke-miterlimit="10" stroke-linecap="round" stroke-linejoin="round"/>
<path d="M99.6249 85.3273H103.462V92.1392H80.3828" stroke="black" stroke-width="3" stroke-miterlimit="10" stroke-linecap="round" stroke-linejoin="round"/>
<path d="M78.6754 85.3274H92.4558" stroke="black" stroke-width="3" stroke-miterlimit="10" stroke-linecap="round" stroke-linejoin="round"/>
<path d="M59.6047 51.5623H45.395C41.1676 51.5623 37.7403 48.1352 37.7403 43.9075V28.2369H67.2594V43.9075C67.2594 48.1352 63.8322 51.5623 59.6047 51.5623Z" stroke="black" stroke-width="3" stroke-miterlimit="10" stroke-linecap="round" stroke-linejoin="round"/>
<path d="M70.1999 28.2367H34.8003C34.5824 28.2367 34.3667 28.1938 34.1653 28.1105C33.964 28.0271 33.7811 27.9049 33.627 27.7508C33.4729 27.5968 33.3507 27.4139 33.2673 27.2126C33.1839 27.0113 33.141 26.7955 33.141 26.5776V23.1493C33.141 22.9314 33.1839 22.7157 33.2673 22.5144C33.3507 22.3131 33.4729 22.1302 33.627 21.9761C33.7811 21.822 33.964 21.6998 34.1653 21.6165C34.3667 21.5331 34.5824 21.4902 34.8003 21.4902H70.1999C70.4178 21.4902 70.6335 21.5331 70.8348 21.6165C71.0361 21.6998 71.2191 21.822 71.3731 21.9761C71.5272 22.1302 71.6495 22.3131 71.7328 22.5144C71.8162 22.7157 71.8592 22.9314 71.8592 23.1493V26.5776C71.8592 26.7955 71.8162 27.0113 71.7328 27.2126C71.6495 27.4139 71.5272 27.5968 71.3731 27.7508C71.2191 27.9049 71.0361 28.0271 70.8348 28.1105C70.6335 28.1938 70.4178 28.2367 70.1999 28.2367Z" stroke="black" stroke-width="3" stroke-miterlimit="10" stroke-linecap="round" stroke-linejoin="round"/>
<path d="M56.1629 8.76493L56.1795 8.76452C63.208 8.76452 68.9054 14.462 68.9054 21.4902H36.0946C36.0946 14.462 41.7921 8.76452 48.8203 8.76452H48.8369" stroke="black" stroke-width="3" stroke-miterlimit="10" stroke-linecap="round" stroke-linejoin="round"/>
<path d="M54.7132 5.12336H50.2868C49.9023 5.12341 49.5336 5.27619 49.2617 5.5481C48.9898 5.82 48.8371 6.18876 48.8371 6.57326V21.4902H56.1629V6.57326C56.1629 6.18876 56.0102 5.82 55.7383 5.5481C55.4664 5.27619 55.0977 5.12341 54.7132 5.12336Z" stroke="black" stroke-width="3" stroke-miterlimit="10" stroke-linecap="round" stroke-linejoin="round"/>
<path d="M39.5536 12.7693L42.6809 14.8759" stroke="black" stroke-width="3" stroke-miterlimit="10" stroke-linecap="round" stroke-linejoin="round"/>
<path d="M65.4464 12.7693L62.3192 14.8759" stroke="black" stroke-width="3" stroke-miterlimit="10" stroke-linecap="round" stroke-linejoin="round"/>
<path d="M52.5 33.0277V37.9768" stroke="black" stroke-width="3" stroke-miterlimit="10" stroke-linecap="round" stroke-linejoin="round"/>
<path d="M49.0631 42.7681C49.6667 44.0605 50.9792 44.9561 52.5 44.9561C54.0209 44.9561 55.3332 44.0605 55.9369 42.7681" stroke="black" stroke-width="3" stroke-miterlimit="10" stroke-linecap="round" stroke-linejoin="round"/>
<path d="M58.5713 51.5623H46.4284V58.7812H58.5713V51.5623Z" stroke="black" stroke-width="3" stroke-miterlimit="10" stroke-linecap="round" stroke-linejoin="round"/>
<path d="M37.7405 40.9003C34.2435 40.9003 31.4087 38.0655 31.4087 34.5685C31.4087 31.0715 34.2435 28.2367 37.7405 28.2367V40.9003Z" stroke="black" stroke-width="3" stroke-miterlimit="10" stroke-linecap="round" stroke-linejoin="round"/>
<path d="M67.2595 40.9003C70.7565 40.9003 73.5912 38.0655 73.5912 34.5685C73.5912 31.0715 70.7565 28.2367 67.2595 28.2367V40.9003Z" stroke="black" stroke-width="3" stroke-miterlimit="10" stroke-linecap="round" stroke-linejoin="round"/>
<path d="M22.679 99.8762L30.3883 69.1081C30.6948 67.8805 31.2774 66.739 32.0916 65.7705" stroke="black" stroke-width="3" stroke-miterlimit="10" stroke-linecap="round" stroke-linejoin="round"/>
<path d="M72.9084 65.7705C73.7227 66.7389 74.3054 67.8804 74.6119 69.1079L82.321 99.8762" stroke="black" stroke-width="3" stroke-miterlimit="10" stroke-linecap="round" stroke-linejoin="round"/>
<path d="M35.6735 99.8762V75.3325C35.6738 71.8171 34.4015 68.4205 32.0916 65.7705C32.9515 64.7421 34.0467 63.9364 35.2845 63.4217L46.4285 58.7818H58.5713L62.4389 60.3921" stroke="black" stroke-width="3" stroke-miterlimit="10" stroke-linecap="round" stroke-linejoin="round"/>
<path d="M68.5691 62.9445L69.7157 63.4219C70.9534 63.9365 72.0487 64.7422 72.9083 65.7707C70.5986 68.4207 69.3263 71.8172 69.3264 75.3325V99.8762" stroke="black" stroke-width="3" stroke-miterlimit="10" stroke-linecap="round" stroke-linejoin="round"/>
<path d="M46.4284 58.782L52.4998 68.0421L58.5713 58.782H46.4284Z" stroke="black" stroke-width="3" stroke-miterlimit="10" stroke-linecap="round" stroke-linejoin="round"/>
<path d="M52.5 68.0423V99.8763" stroke="black" stroke-width="3" stroke-miterlimit="10" stroke-linecap="round" stroke-linejoin="round"/>
<path d="M69.326 88.9495H35.674V79.3292H69.326V88.9495Z" stroke="black" stroke-width="3" stroke-miterlimit="10" stroke-linecap="round" stroke-linejoin="round"/>
<path d="M29.1012 74.2454L20.7728 70.7785H12.1736L1.53809 75.2057V99.8762" stroke="black" stroke-width="3" stroke-miterlimit="10" stroke-linecap="round" stroke-linejoin="round"/>
<path d="M11.4426 65.6659H21.5043C24.4976 65.6659 26.9243 63.2392 26.9243 60.2457V50.7073H6.02234V60.2457C6.02234 63.2392 8.44903 65.6659 11.4426 65.6659Z" stroke="black" stroke-width="3" stroke-miterlimit="10" stroke-linecap="round" stroke-linejoin="round"/>
<path d="M3.94037 50.7075H29.0064C29.1607 50.7075 29.3135 50.6771 29.456 50.6181C29.5986 50.559 29.7281 50.4725 29.8372 50.3634C29.9462 50.2543 30.0328 50.1248 30.0918 49.9822C30.1508 49.8397 30.1812 49.6869 30.1811 49.5326V46.357C30.1812 46.2027 30.1508 46.0499 30.0918 45.9074C30.0328 45.7649 29.9462 45.6353 29.8372 45.5262C29.7281 45.4171 29.5986 45.3306 29.456 45.2715C29.3135 45.2125 29.1607 45.1821 29.0064 45.1821H3.94037C3.62878 45.1822 3.32997 45.306 3.10965 45.5263C2.88933 45.7466 2.76553 46.0454 2.76547 46.357V49.5326C2.76553 49.8442 2.88933 50.143 3.10965 50.3633C3.32997 50.5837 3.62878 50.7075 3.94037 50.7075Z" stroke="black" stroke-width="3" stroke-miterlimit="10" stroke-linecap="round" stroke-linejoin="round"/>
<path d="M5.16184 42.8496C4.95885 43.6105 4.8564 44.3946 4.85709 45.1821H28.0898C28.0898 40.2053 24.0555 36.1712 19.0788 36.1712H19.0672" stroke="black" stroke-width="3" stroke-miterlimit="10" stroke-linecap="round" stroke-linejoin="round"/>
<path d="M13.8797 36.1712H13.8678C12.3348 36.1688 10.8267 36.5594 9.48755 37.3057" stroke="black" stroke-width="3" stroke-miterlimit="10" stroke-linecap="round" stroke-linejoin="round"/>
<path d="M14.9063 33.593H18.0405C18.1753 33.593 18.3088 33.6195 18.4334 33.6711C18.5579 33.7227 18.6711 33.7983 18.7664 33.8937C18.8618 33.989 18.9374 34.1022 18.989 34.2267C19.0406 34.3513 19.0671 34.4848 19.0671 34.6196V45.1821H13.8797V34.6196C13.8797 34.3473 13.9878 34.0862 14.1804 33.8937C14.3729 33.7011 14.634 33.593 14.9063 33.593Z" stroke="black" stroke-width="3" stroke-miterlimit="10" stroke-linecap="round" stroke-linejoin="round"/>
<path d="M16.4733 50.7075V54.3516" stroke="black" stroke-width="3" stroke-miterlimit="10" stroke-linecap="round" stroke-linejoin="round"/>
<path d="M14.0396 58.8239C14.467 59.7389 15.3962 60.373 16.4731 60.373C17.55 60.373 18.4792 59.7389 18.9066 58.8239" stroke="black" stroke-width="3" stroke-miterlimit="10" stroke-linecap="round" stroke-linejoin="round"/>
<path d="M12.1743 65.6661H20.7724V70.7777H12.1743V65.6661Z" stroke="black" stroke-width="3" stroke-miterlimit="10" stroke-linecap="round" stroke-linejoin="round"/>
<path d="M20.7724 70.7783L16.4733 79.3292L12.1743 70.7783H20.7724Z" stroke="black" stroke-width="3" stroke-miterlimit="10" stroke-linecap="round" stroke-linejoin="round"/>
<path d="M16.4733 79.3292V99.8763" stroke="black" stroke-width="3" stroke-miterlimit="10" stroke-linecap="round" stroke-linejoin="round"/>
<path d="M26.3246 85.3273H1.53809V92.1392H24.6174" stroke="black" stroke-width="3" stroke-miterlimit="10" stroke-linecap="round" stroke-linejoin="round"/>
</g>
</svg>
