<svg width="61" height="60" viewBox="0 0 61 60" fill="none" xmlns="http://www.w3.org/2000/svg">
<g clip-path="url(#clip0_85_122)">
<path d="M34.9858 13.6679C33.5321 13.2695 32.0229 13.0675 30.5 13.0675C21.1633 13.0675 13.5675 20.6633 13.5675 30C13.5675 39.3367 21.1633 46.9325 30.5 46.9325C39.8367 46.9325 47.4325 39.3367 47.4325 30C47.4325 28.4771 47.2305 26.9679 46.8321 25.5142C46.5583 24.5155 47.146 23.484 48.1447 23.2103C49.1428 22.9366 50.1748 23.5242 50.4486 24.5229C50.9366 26.3076 51.1835 28.1497 51.1825 30C51.1825 41.4043 41.9043 50.6825 30.5 50.6825C19.0957 50.6825 9.81746 41.4043 9.81746 30C9.81746 18.5957 19.0957 9.31746 30.5 9.31746C32.3578 9.31746 34.2004 9.56437 35.9771 10.0514C36.81 10.2797 37.357 11.0351 37.3569 11.8589C37.3567 12.0266 37.3342 12.1936 37.2897 12.3553C37.0161 13.354 35.9847 13.942 34.9858 13.6679ZM56.9396 20.2078C55.9467 20.5018 55.38 21.5449 55.674 22.538C56.388 24.9497 56.75 27.4602 56.75 30C56.75 44.4743 44.9743 56.25 30.5 56.25C16.0257 56.25 4.25 44.4743 4.25 30C4.25 15.5257 16.0257 3.75 30.5 3.75C33.0399 3.75 35.5504 4.11199 37.9617 4.8259C38.9547 5.12004 39.9978 4.55309 40.2918 3.56027C40.3443 3.38273 40.3694 3.20379 40.3694 3.02766C40.3696 2.21848 39.8417 1.47164 39.0262 1.23012C36.269 0.413789 33.4005 0 30.5 0C22.4867 0 14.953 3.12059 9.28672 8.78672C3.62059 14.4531 0.5 21.9867 0.5 30C0.5 38.0133 3.62059 45.547 9.28672 51.2133C14.9529 56.8795 22.4867 60 30.5 60C38.5133 60 46.0469 56.8794 51.7133 51.2133C57.3794 45.547 60.5 38.0133 60.5 30C60.5 27.0997 60.0861 24.231 59.2698 21.4734C58.9759 20.4805 57.9324 19.9143 56.9396 20.2078ZM30.5 22.5C30.7757 22.5 31.0542 22.5152 31.3277 22.5452C32.3575 22.6586 33.2832 21.9152 33.3959 20.886C33.5089 19.8566 32.7661 18.9306 31.7367 18.8177C31.326 18.7727 30.9132 18.7501 30.5 18.75C24.2967 18.75 19.25 23.7967 19.25 30C19.25 36.2033 24.2967 41.25 30.5 41.25C36.7033 41.25 41.75 36.2033 41.75 30C41.75 28.9644 40.9106 28.125 39.875 28.125C38.8394 28.125 38 28.9644 38 30C38 34.1355 34.6355 37.5 30.5 37.5C26.3645 37.5 23 34.1355 23 30C23 25.8645 26.3645 22.5 30.5 22.5ZM40.0735 17.7751L41.0075 8.40633C41.0504 7.97541 41.2411 7.57263 41.5474 7.26645L48.2649 0.549141C48.5183 0.295795 48.839 0.120358 49.189 0.0435976C49.539 -0.0331625 49.9037 -0.00803135 50.2398 0.116016C50.576 0.240063 50.8696 0.457833 51.0858 0.743544C51.3021 1.02926 51.4319 1.37095 51.46 1.72816L51.9927 8.50746L58.7718 9.03996C59.1291 9.06801 59.4708 9.19784 59.7565 9.41408C60.0423 9.63032 60.2601 9.92392 60.3841 10.2601C60.5082 10.5963 60.5333 10.961 60.4565 11.311C60.3797 11.661 60.2043 11.9817 59.9509 12.2351L53.2334 18.9524C52.9273 19.2586 52.5246 19.4494 52.0937 19.4923L42.7251 20.4267L31.8259 31.3259C31.6519 31.5002 31.4453 31.6385 31.2177 31.7327C30.9902 31.827 30.7463 31.8753 30.5 31.875C30.2537 31.8753 30.0098 31.827 29.7823 31.7327C29.5548 31.6385 29.3481 31.5002 29.1743 31.3257C28.442 30.5936 28.442 29.4063 29.1743 28.6741L40.0735 17.7751ZM43.9658 16.5345L51.0552 15.8273L54.4225 12.46L50.1021 12.1206C49.6569 12.0856 49.2389 11.8929 48.9231 11.5771C48.6074 11.2614 48.4147 10.8433 48.3796 10.3982L48.0403 6.07734L44.6727 9.44484L43.9658 16.5345Z" fill="black"/>
</g>
<defs>
<clipPath id="clip0_85_122">
<rect width="60" height="60" fill="white" transform="translate(0.5)"/>
</clipPath>
</defs>
</svg>
