<svg width="105" height="105" viewBox="0 0 105 105" fill="none" xmlns="http://www.w3.org/2000/svg">
<path d="M82.4108 60.5628L69.1463 52.3781C68.1929 51.7897 66.9089 52.1 66.3224 53.0465C65.7346 53.9949 66.0466 55.2861 66.991 55.8683L80.2554 64.053C81.2084 64.641 82.4914 64.3385 83.0773 63.3847C83.6632 62.4306 83.3646 61.1507 82.4108 60.5628ZM61.0892 47.7657C59.7794 47.7655 58.7917 49.0124 59.0911 50.2871C59.2103 50.7949 59.5593 51.2561 60.0191 51.5473C60.3347 51.7473 60.7026 51.8673 61.0847 51.8673C61.8023 51.8673 62.4565 51.5045 62.8318 50.8936C63.6312 49.5921 62.6263 47.7659 61.0892 47.7657ZM39.8534 52.9404C39.2749 52.019 37.941 51.7212 37.0249 52.3L23.8405 60.6138C22.892 61.2119 22.6026 62.4932 23.2 63.4408C23.5591 64.0108 24.2521 64.3448 24.938 64.3641C25.324 64.375 25.7077 64.2862 26.0287 64.0838L39.2131 55.7678C40.1614 55.1698 40.4493 53.8895 39.8534 52.9404ZM45.0538 47.6078C44.1014 47.6078 43.2669 48.2772 43.0563 49.2049C42.7694 50.4688 43.77 51.7094 45.0579 51.7094C46.0084 51.7094 46.8476 51.0402 47.0574 50.1116C47.3447 48.8401 46.3533 47.6078 45.0538 47.6078Z" fill="black"/>
<path d="M104.497 93.4056C103.754 92.5509 102.458 92.4606 101.604 93.2038C99.417 95.1051 97.3933 97.0763 94.524 97.8694C91.3344 98.7508 88.3032 98.0552 85.4165 96.6118L96.0968 60.6773C96.2259 60.2426 96.2074 59.7773 96.044 59.3543C95.8806 58.9312 95.5816 58.5742 95.1938 58.3392L85.3125 52.352V34.8685C85.3125 33.736 84.3944 32.8177 83.2618 32.8177H79.1602V26.6654C79.1602 25.5329 78.2421 24.6146 77.1094 24.6146H70.6495V18.4622C70.6495 17.3298 69.7313 16.4115 68.5987 16.4115H58.6524V2.05603C58.6524 0.923587 57.7343 0.00524902 56.6017 0.00524902H48.3985C47.2659 0.00524902 46.3478 0.923587 46.3478 2.05603V16.4115H36.4015C35.2689 16.4115 34.3507 17.3298 34.3507 18.4622V24.6146H27.8908C26.7581 24.6146 25.84 25.5329 25.84 26.6654V32.8177H21.7384C20.6058 32.8177 19.6877 33.736 19.6877 34.8685V52.352L9.80661 58.339C9.41873 58.574 9.11971 58.931 8.95633 59.354C8.79295 59.7771 8.77442 60.2424 8.90365 60.6771L19.5622 96.5382C19.3802 95.9263 16.0986 95.5233 15.5184 95.4482C9.54718 94.6755 5.00656 97.6667 0.705257 101.407C-0.149507 102.15 -0.239741 103.445 0.503255 104.3C1.21262 105.116 2.5327 105.253 3.39629 104.502C7.82761 100.65 12.8235 97.7131 18.6867 100.645C23.9908 103.297 29.4811 104.434 35.0057 101.527C39.4604 99.1821 43.7593 97.1573 48.7316 99.5247L53.8436 101.959C58.2171 104.042 63.2103 103.994 67.5426 101.827C70.2123 100.493 72.9256 98.7161 75.9751 98.5065C78.9644 98.3013 81.8527 99.4142 84.4791 100.729C87.9488 102.464 92.0108 102.81 95.7366 101.748C99.1686 100.77 101.666 98.5839 104.295 96.2985C105.15 95.5555 105.24 94.2604 104.497 93.4056ZM81.211 36.9192V49.8668L59.8423 36.9192H81.211ZM50.4493 4.1068H54.5509V16.4115H50.4493V4.1068ZM38.4523 20.513H66.5479V24.6146H38.4523V20.513ZM23.7892 36.9192H45.1579L23.7892 49.8668V36.9192ZM50.4493 95.8001C50.4497 95.4357 47.5259 94.7635 47.1435 94.6806C43.5743 93.9081 39.7426 94.3986 36.5069 96.1018C34.1592 97.3374 31.8941 98.7789 29.209 99.1246L29.1942 99.1265C27.6254 99.3172 26.0196 99.2018 24.5012 98.759L13.2862 61.0265L50.4493 38.509V95.8001ZM29.9415 32.8177V28.7161H75.0586V32.8177H29.9415ZM81.6256 94.9683C81.6484 94.3338 75.8755 94.3396 75.4887 94.3804C71.929 94.7569 68.8495 96.5884 65.7081 98.1591C61.997 100.015 58.1785 99.4813 54.5509 97.7531V38.509L91.714 61.0265L81.6256 94.9683Z" fill="black"/>
</svg>
