<svg width="105" height="105" viewBox="0 0 105 105" fill="none" xmlns="http://www.w3.org/2000/svg">
<path d="M99.862 65.3585C98.9336 63.8081 95.1251 59.2032 85.1056 65.0383L67.555 75.2606C66.7439 75.7331 65.9199 76.0767 65.0637 76.2944C65.3641 75.7764 65.6031 75.1987 65.7724 74.5669C66.6809 71.1755 64.6667 67.6352 61.1867 66.5069C61.1164 66.4843 61.0446 66.4663 60.972 66.4529C55.9353 65.5447 50.9613 63.7463 46.9643 62.3013C45.5733 61.7985 44.2596 61.3235 43.1417 60.9612C38.6174 59.4936 34.535 61.3057 31.1382 63.2726L18.1535 70.7904L16.9639 68.6883C16.4095 67.7089 15.5043 67.003 14.4149 66.7013C13.3254 66.399 12.1859 66.5387 11.2065 67.0928L6.28236 69.8794C5.3027 70.4339 4.59682 71.3391 4.29495 72.4285C3.99287 73.5179 4.13212 74.6575 4.68644 75.6372L19.1635 101.217C19.7178 102.197 20.6231 102.903 21.7126 103.204C22.0894 103.309 22.472 103.36 22.8523 103.36C23.5711 103.36 24.2802 103.176 24.9211 102.813L29.8452 100.026C30.8249 99.4716 31.5306 98.5663 31.8326 97.477C32.1347 96.3876 31.9957 95.2482 31.4413 94.2683L29.9894 91.7028L32.8644 90.0429L55.3096 96.057C56.5571 96.3913 57.798 96.5574 59.0188 96.5574C61.4871 96.5572 63.8722 95.8778 66.052 94.5359L97.9018 74.9239C100.842 73.1139 101.776 68.5546 99.862 65.3585ZM28.6703 96.6003C28.6381 96.7197 28.5825 96.8316 28.5067 96.9295C28.4309 97.0273 28.3364 97.1091 28.2288 97.1702L23.3045 99.9572C23.1967 100.018 23.078 100.057 22.9551 100.071C22.8323 100.086 22.7077 100.076 22.5887 100.042C22.4693 100.01 22.3574 99.9543 22.2597 99.8785C22.1619 99.8028 22.0801 99.7083 22.019 99.6008L7.54195 74.0205C7.41911 73.8036 7.38896 73.5495 7.45684 73.3048C7.52473 73.0602 7.6814 72.8575 7.89838 72.7349L12.8227 69.9481C12.9623 69.8689 13.12 69.8273 13.2804 69.8275C13.3662 69.8275 13.4529 69.8394 13.5384 69.863C13.6578 69.8953 13.7697 69.9509 13.8674 70.0266C13.9652 70.1024 14.047 70.1968 14.1081 70.3043L28.5854 95.8843C28.6462 95.9921 28.6851 96.1109 28.6996 96.2338C28.7142 96.3567 28.7043 96.4812 28.6703 96.6003ZM96.1812 72.1297L64.3316 91.7418C61.8259 93.2843 59.0764 93.6699 56.1586 92.8875L33.0567 86.6974C32.8487 86.6415 32.6316 86.6273 32.418 86.6554C32.2044 86.6836 31.9984 86.7536 31.8119 86.8615L28.373 88.8469L19.7697 73.6457L32.7819 66.1117C35.6922 64.4268 38.8391 63.0148 42.1292 64.0822C43.1952 64.4278 44.4246 64.8724 45.8485 65.387C49.9306 66.8627 55.0036 68.6967 60.2702 69.6604C62.0587 70.2883 63.0589 72.0155 62.603 73.7174C62.0031 75.9563 60.1332 76.235 58.6431 76.0656C56.0618 75.5346 53.6072 74.8343 51.0103 74.0925C49.7776 73.7404 48.503 73.3764 47.1926 73.0253C46.9845 72.9695 46.7674 72.9553 46.5538 72.9834C46.3402 73.0116 46.1342 73.0815 45.9476 73.1892C45.761 73.2969 45.5975 73.4404 45.4663 73.6113C45.3352 73.7822 45.239 73.9773 45.1832 74.1854C45.1275 74.3935 45.1132 74.6106 45.1414 74.8242C45.1695 75.0378 45.2394 75.2438 45.3471 75.4304C45.4549 75.617 45.5983 75.7805 45.7692 75.9117C45.9401 76.0428 46.1352 76.139 46.3433 76.1948C47.6278 76.5389 48.8892 76.8992 50.109 77.2477C52.7898 78.0132 58.1038 79.3042 58.1152 79.306L60.2979 79.6608C63.582 80.1862 66.496 79.6741 69.2065 78.0956L86.7571 67.8733C91.7651 64.9567 95.6117 64.647 97.0471 67.0438C98.0337 68.692 97.5969 71.2583 96.1812 72.1297ZM14.2103 74.816C14.2777 75.2774 14.1591 75.7467 13.8805 76.1207C13.7426 76.3058 13.5696 76.462 13.3713 76.5803C13.173 76.6985 12.9533 76.7766 12.7249 76.81C12.2635 76.8775 11.7942 76.7589 11.4203 76.4803C11.0463 76.2017 10.7984 75.786 10.7309 75.3246C10.6975 75.0962 10.7095 74.8634 10.766 74.6395C10.8226 74.4157 10.9227 74.2052 11.0606 74.02C11.3392 73.6461 11.7549 73.3981 12.2163 73.3307C12.6777 73.2632 13.147 73.3818 13.5209 73.6604C13.8949 73.9389 14.1428 74.3546 14.2103 74.816ZM21.5925 34.0994L25.079 35.4414C25.5947 37.3001 26.3362 39.0886 27.2869 40.7669L25.7693 44.1837C25.6347 44.4867 25.5951 44.8234 25.6556 45.1493C25.7162 45.4753 25.8741 45.7753 26.1085 46.0097L31.0457 50.947C31.2802 51.1814 31.5802 51.3393 31.9061 51.3999C32.2321 51.4604 32.5688 51.4208 32.8718 51.2862L36.2871 49.7692C37.9659 50.7204 39.7549 51.4621 41.6142 51.9777L42.9559 55.4632C43.075 55.7726 43.285 56.0387 43.5583 56.2264C43.8317 56.414 44.1554 56.5145 44.487 56.5145H51.4693C51.8008 56.5145 52.1246 56.414 52.3979 56.2264C52.6712 56.0387 52.8813 55.7726 53.0004 55.4632L54.3424 51.9767C56.201 51.4609 57.9894 50.7194 59.6677 49.7686L63.0847 51.2862C63.2588 51.3635 63.4411 51.4051 63.6238 51.4193L64.3999 52.1953C63.3812 55.7448 64.3484 59.5871 67.0029 62.2419C68.9587 64.1975 71.5522 65.2432 74.217 65.2432C75.2856 65.2432 76.366 65.075 77.4211 64.7299C77.6877 64.6427 77.9274 64.4887 78.1175 64.2824C78.3076 64.0762 78.4416 63.8247 78.5068 63.552C78.572 63.2792 78.5662 62.9942 78.49 62.7244C78.4137 62.4545 78.2695 62.2086 78.0712 62.0103L72.6362 56.5756L73.305 54.0798L75.8004 53.411L81.2353 58.846C81.4336 59.0443 81.6794 59.1885 81.9493 59.2648C82.2192 59.3411 82.5041 59.3469 82.7769 59.2817C83.0497 59.2165 83.3012 59.0825 83.5074 58.8925C83.7136 58.7024 83.8677 58.4626 83.9549 58.1961C85.1605 54.51 84.2071 50.5182 81.4669 47.7779C78.8123 45.1234 74.9704 44.1558 71.4203 45.1747L69.9938 43.7483L68.6702 40.7681C69.6214 39.0894 70.363 37.3002 70.8785 35.4408L74.364 34.0992C74.6734 33.9802 74.9395 33.7701 75.1272 33.4968C75.3149 33.2234 75.4153 32.8997 75.4152 32.5681V25.5858C75.4152 25.2543 75.3148 24.9305 75.1271 24.6572C74.9395 24.3838 74.6734 24.1738 74.364 24.0547L70.8779 22.7129C70.3623 20.854 69.6207 19.0654 68.6698 17.387L70.187 13.9706C70.3215 13.6676 70.3611 13.3309 70.3005 13.0049C70.2399 12.679 70.082 12.379 69.8476 12.1446L64.9103 7.20731C64.6759 6.97284 64.3759 6.81492 64.0499 6.75437C63.7239 6.69381 63.3873 6.73347 63.0843 6.86812L59.6675 8.38549C57.9893 7.43473 56.2008 6.69324 54.3422 6.17762L53 2.69088C52.8808 2.38149 52.6708 2.11544 52.3975 1.92778C52.1242 1.74013 51.8004 1.63967 51.4689 1.63965H44.4868C44.1552 1.63965 43.8315 1.74009 43.5581 1.92775C43.2848 2.11541 43.0748 2.38147 42.9557 2.69088L41.6136 6.17762C39.755 6.6932 37.9666 7.43469 36.2884 8.38549L32.8714 6.86812C32.5684 6.73344 32.2317 6.69377 31.9057 6.75432C31.5797 6.81488 31.2797 6.97282 31.0453 7.20731L26.1081 12.1444C25.8737 12.3788 25.7158 12.6788 25.6552 13.0048C25.5947 13.3307 25.6343 13.6674 25.7689 13.9704L27.2858 17.386C26.3347 19.0647 25.593 20.8538 25.0774 22.7131L21.5919 24.0547C21.2824 24.1737 21.0163 24.3838 20.8287 24.6571C20.641 24.9305 20.5406 25.2542 20.5406 25.5858V32.5681C20.5408 32.8997 20.6414 33.2235 20.8291 33.4968C21.0169 33.7702 21.283 33.9802 21.5925 34.0994ZM71.6053 48.5783C72.872 48.0589 74.2641 47.9261 75.6061 48.1965C76.9482 48.467 78.1802 49.1287 79.1468 50.0982C80.2532 51.2046 80.9306 52.6112 81.1262 54.0964L77.4512 50.4212C77.2477 50.2175 76.994 50.071 76.7159 49.9964C76.4377 49.9218 76.1448 49.9219 75.8666 49.9965L71.5411 51.1553C71.2629 51.2299 71.0092 51.3763 70.8056 51.58C70.602 51.7836 70.4555 52.0373 70.381 52.3155L69.2221 56.6412C69.1475 56.9194 69.1476 57.2123 69.2221 57.4905C69.2967 57.7687 69.4431 58.0224 69.6468 58.226L73.3218 61.901C71.8368 61.7054 70.4298 61.0278 69.3236 59.9218C68.3542 58.9552 67.6925 57.7232 67.4221 56.3811C67.1517 55.039 67.2845 53.647 67.804 52.3803C67.9261 52.0812 67.9572 51.7527 67.8933 51.4359C67.8295 51.1192 67.6736 50.8284 67.4451 50.6L65.1947 48.3497L65.1915 48.3462L65.1888 48.3439L57.3952 40.5501L57.3884 40.5434L52.5773 35.732C52.3488 35.5037 52.058 35.3478 51.7413 35.284C51.4246 35.2202 51.0961 35.2513 50.797 35.3734C49.5304 35.893 48.1383 36.026 46.7961 35.7555C45.454 35.4851 44.222 34.8233 43.2555 33.8537C42.1491 32.7473 41.4717 31.3407 41.2761 29.8555L44.9511 33.5307C45.1546 33.7344 45.4083 33.8809 45.6865 33.9555C45.9647 34.03 46.2576 34.0299 46.5357 33.9552L50.8612 32.7966C51.1394 32.722 51.3931 32.5756 51.5967 32.3719C51.8004 32.1683 51.9468 31.9146 52.0213 31.6364L53.1802 27.3107C53.2548 27.0325 53.2548 26.7396 53.1802 26.4614C53.1056 26.1832 52.9592 25.9295 52.7555 25.7259L49.0803 22.0509C50.5653 22.2465 51.9723 22.9241 53.0787 24.0305C54.0482 24.9971 54.7098 26.229 54.9802 27.571C55.2507 28.913 55.1178 30.305 54.5984 31.5716C54.4762 31.8708 54.4451 32.1993 54.5089 32.5161C54.5728 32.8328 54.7287 33.1237 54.9572 33.3521L69.8252 48.2199C70.0537 48.4482 70.3445 48.604 70.6611 48.6677C70.9778 48.7315 71.3062 48.7004 71.6053 48.5783ZM60.417 34.1716L58.0018 31.7564C59.0205 28.2069 58.0533 24.3646 55.3988 21.7102C52.6583 18.9698 48.6663 18.0164 44.9804 19.2218C44.714 19.3092 44.4743 19.4633 44.2844 19.6695C44.0944 19.8758 43.9605 20.1272 43.8953 20.3999C43.8302 20.6726 43.8359 20.9575 43.9121 21.2273C43.9883 21.4972 44.1323 21.743 44.3305 21.9414L49.7655 27.3761L49.0969 29.8719L46.6013 30.5405L41.1664 25.1055C40.9681 24.9072 40.7222 24.763 40.4523 24.6867C40.1824 24.6105 39.8975 24.6047 39.6247 24.6699C39.352 24.7351 39.1005 24.8691 38.8942 25.0592C38.688 25.2493 38.534 25.489 38.4468 25.7556C37.2412 29.4415 38.1948 33.4333 40.935 36.1738C43.5896 38.8283 47.4319 39.7961 50.9816 38.7768L53.5262 41.3214C51.7835 42.1114 49.8918 42.5192 47.9784 42.5175C40.5675 42.5175 34.5382 36.4884 34.5382 29.0775C34.5382 21.6663 40.5675 15.6371 47.9784 15.6371C55.3893 15.6371 61.4186 21.6663 61.4186 29.0775C61.419 30.8245 61.0788 32.5548 60.417 34.1716ZM23.8225 26.7125L27.0451 25.472C27.2938 25.3763 27.5154 25.2214 27.6909 25.0208C27.8663 24.8202 27.9902 24.5799 28.0518 24.3207C28.5532 22.2123 29.3884 20.1977 30.5257 18.3529C30.6655 18.126 30.7479 17.8684 30.7657 17.6025C30.7836 17.3366 30.7364 17.0703 30.6282 16.8267L29.2255 13.6683L32.5697 10.3243L35.7293 11.7274C35.9729 11.8356 36.2391 11.8828 36.505 11.865C36.7709 11.8472 37.0284 11.7648 37.2553 11.6251C39.0997 10.4882 41.1138 9.65308 43.2216 9.15146C43.4809 9.08985 43.7212 8.966 43.9218 8.79062C44.1224 8.61524 44.2773 8.39362 44.373 8.14493L45.6137 4.9211H50.343L51.5839 8.14493C51.6796 8.3936 51.8345 8.61521 52.0351 8.79058C52.2357 8.96595 52.476 9.08982 52.7352 9.15146C54.8431 9.653 56.8572 10.4881 58.7016 11.6251C58.9285 11.7648 59.186 11.8471 59.4519 11.8649C59.7178 11.8828 59.984 11.8356 60.2275 11.7274L63.3872 10.3243L66.7314 13.6685L65.3283 16.8277C65.2201 17.0713 65.1728 17.3376 65.1907 17.6035C65.2086 17.8694 65.291 18.127 65.4308 18.3539C66.5679 20.1983 67.4029 22.2126 67.9044 24.3205C67.9661 24.5797 68.09 24.82 68.2654 25.0206C68.4409 25.2212 68.6625 25.3761 68.9112 25.4718L72.1344 26.7125V31.4418L68.9118 32.6823C68.6631 32.778 68.4415 32.9329 68.2661 33.1335C68.0907 33.3341 67.9668 33.5744 67.9051 33.8336C67.4373 35.7947 66.6805 37.6754 65.6595 39.4138L62.8907 36.6451C64.0809 34.3001 64.7008 31.7072 64.6999 29.0775C64.6999 19.8572 57.1987 12.3558 47.9784 12.3558C38.7581 12.3558 31.257 19.8572 31.257 29.0775C31.257 38.2976 38.7583 45.7987 47.9784 45.7987C50.7909 45.7987 53.5274 45.0984 55.9711 43.7664L58.7227 46.5179C58.7157 46.522 58.7083 46.5251 58.7014 46.5292C56.857 47.6662 54.8428 48.5012 52.735 49.0029C52.4758 49.0645 52.2355 49.1884 52.035 49.3638C51.8344 49.5391 51.6796 49.7607 51.5839 50.0094L50.3432 53.233H45.6137L44.3734 50.0104C44.2777 49.7617 44.1228 49.5401 43.9222 49.3647C43.7216 49.1893 43.4813 49.0655 43.2221 49.0039C41.1137 48.5023 39.0991 47.6671 37.2543 46.5298C37.0273 46.3901 36.7697 46.3078 36.5038 46.2899C36.2378 46.272 35.9715 46.3192 35.7279 46.4273L32.5697 47.8302L29.2255 44.486L30.6288 41.3264C30.737 41.0828 30.7842 40.8166 30.7664 40.5507C30.7486 40.2848 30.6662 40.0273 30.5265 39.8004C29.3894 37.956 28.5543 35.9417 28.0528 33.8338C27.9911 33.5746 27.8672 33.3344 27.6918 33.1338C27.5164 32.9333 27.2948 32.7784 27.0461 32.6827L23.8225 31.4418V26.7125Z" fill="black"/>
</svg>
