<svg width="63" height="63" viewBox="0 0 63 63" fill="none" xmlns="http://www.w3.org/2000/svg">
<g clip-path="url(#clip0_85_113)">
<path d="M62.5402 30.281C62.3988 30.1202 59.0131 26.2988 53.5303 22.4439C38.9305 12.1786 24.6553 11.7668 9.46968 22.4439C3.98695 26.2988 0.601319 30.1202 0.459939 30.281C0.163567 30.6179 9.15527e-05 31.0513 9.15527e-05 31.5C9.15527e-05 31.9488 0.163567 32.3821 0.459939 32.7191C0.601319 32.8799 3.98695 36.7012 9.4698 40.5562C24.0696 50.8215 38.3448 51.2333 53.5304 40.5562C59.0133 36.7012 62.3988 32.8798 62.5403 32.7191C62.8366 32.3821 63.0001 31.9487 63.0001 31.5C63 31.0513 62.8365 30.6179 62.5402 30.281ZM44.9056 31.5C44.9056 38.8523 38.8426 44.747 31.5001 44.747C24.1455 44.747 18.0946 38.84 18.0946 31.5C18.0946 24.1477 24.1577 18.253 31.5001 18.253C38.8546 18.253 44.9056 24.16 44.9056 31.5ZM4.39842 31.5C8.04209 27.8588 12.6012 24.3946 17.3706 21.9737C13.4506 27.6624 13.3747 35.2274 17.3706 41.0263C12.5773 38.5934 8.02031 35.1191 4.39842 31.5ZM45.6293 41.0263C49.5494 35.3376 49.6253 27.7727 45.6293 21.9737C50.4226 24.4066 54.9797 27.881 58.6016 31.5C54.9656 35.1331 50.4084 38.6007 45.6293 41.0263Z" fill="black"/>
<path d="M33.3457 29.6543H34.4269L31.5 32.5812L29.1106 30.1918C28.3905 29.4714 27.2209 29.471 26.5004 30.1918L22.8406 33.8517C22.1198 34.5725 22.1198 35.7411 22.8406 36.4619C23.5613 37.1828 24.73 37.1826 25.4508 36.4619L27.8055 34.1071L30.195 36.4964C30.9159 37.2172 32.0843 37.2172 32.8052 36.4964L37.0371 32.2645V32.7305C37.0371 33.7498 37.8635 34.5762 38.8828 34.5762C39.9021 34.5762 40.7285 33.7498 40.7285 32.7305V27.8086C40.7285 26.7893 39.9021 25.9629 38.8828 25.9629H33.3457C32.3264 25.9629 31.5 26.7893 31.5 27.8086C31.5 28.8279 32.3264 29.6543 33.3457 29.6543ZM31.5 11.0742C32.5193 11.0742 33.3457 10.2478 33.3457 9.22852V5.53711C33.3457 4.51779 32.5193 3.69141 31.5 3.69141C30.4807 3.69141 29.6543 4.51779 29.6543 5.53711V9.22852C29.6543 10.2478 30.4807 11.0742 31.5 11.0742ZM43.5586 14.3053C44.4375 14.8129 45.5679 14.5166 46.0798 13.6298L47.9255 10.433C48.4353 9.55028 48.1329 8.42133 47.25 7.91179C46.3673 7.40189 45.2383 7.70433 44.7288 8.58732L42.8831 11.7841C42.3733 12.6668 42.6757 13.7956 43.5586 14.3053ZM31.5 51.8027C30.4807 51.8027 29.6543 52.6291 29.6543 53.6484V57.4629C29.6543 58.4822 30.4807 59.3086 31.5 59.3086C32.5193 59.3086 33.3457 58.4822 33.3457 57.4629V53.6484C33.3457 52.6291 32.5193 51.8027 31.5 51.8027ZM46.0183 49.2637C45.5085 48.3808 44.3798 48.0782 43.4971 48.5881C42.6142 49.0978 42.3118 50.2265 42.8215 51.1094L44.7288 54.4128C45.24 55.2984 46.3698 55.5966 47.25 55.0883C48.1329 54.5787 48.4353 53.45 47.9255 52.5671L46.0183 49.2637ZM16.9202 13.6298C17.4314 14.5153 18.5613 14.8136 19.4414 14.3053C20.3243 13.7956 20.6267 12.6668 20.1169 11.7841L18.2712 8.58732C17.7614 7.70433 16.6327 7.40201 15.75 7.91179C14.8671 8.42145 14.5647 9.55028 15.0745 10.433L16.9202 13.6298ZM19.5029 48.5881C18.6202 48.0781 17.4912 48.3809 16.9817 49.2637L15.0745 52.5671C14.5647 53.45 14.8671 54.5788 15.75 55.0883C16.6293 55.5961 17.7595 55.2991 18.2712 54.4128L20.1785 51.1094C20.6882 50.2266 20.3858 49.0978 19.5029 48.5881Z" fill="black"/>
</g>
<defs>
<clipPath id="clip0_85_113">
<rect width="63" height="63" fill="white"/>
</clipPath>
</defs>
</svg>
